<svg width="28" height="28" viewBox="0 0 28 28" fill="none" xmlns="http://www.w3.org/2000/svg">
<path d="M4.95898 0C5.95083 0 6.51758 0.575491 6.51758 1.55859V3.76465C6.51761 5.58693 7.50995 6.59375 9.30469 6.59375H16.9082C19.128 6.59375 20.62 8.12847 20.6201 10.4062V14.3477H20.6221V18.1602C20.6222 19.8624 21.7325 20.9653 23.4326 20.9893H25.6045C26.549 21.0132 27.1395 21.5885 27.1396 22.5234C27.1633 23.6983 27.1631 24.8974 27.1631 26.0723C27.1867 26.8635 26.5967 27.5355 25.7939 27.5596H25.6758C24.4714 27.5835 23.2903 27.5835 22.0859 27.5596C21.3067 27.5835 20.6457 26.9592 20.6221 26.168V23.627C20.5985 21.9964 19.5826 20.9414 17.9531 20.9414H10.3252C8.01117 20.9652 6.5 19.4302 6.5 17.1045V10.415C6.5 10.2743 6.50598 10.1361 6.51758 10.001V9.30371C6.54119 7.81707 5.36063 6.61773 3.89648 6.59375H1.53516C0.56693 6.56977 0 6.01826 0 5.03516V1.53418C0.000165617 0.575307 0.567072 0 1.53516 0H4.95898Z" fill="#0098C5"/>
<path d="M9 12.2886C9 10.6317 10.3431 9.28857 12 9.28857H15C16.6569 9.28857 18 10.6317 18 12.2886V15.2886C18 16.9454 16.6569 18.2886 15 18.2886H12C10.3431 18.2886 9 16.9454 9 15.2886V12.2886Z" fill="#114E85"/>
</svg>
